<?xml version="1.0" encoding="utf-8"?>
<!-- Generator: Adobe Illustrator 25.3.1, SVG Export Plug-In . SVG Version: 6.00 Build 0)  -->
<svg version="1.1" id="Layer_1" xmlns="http://www.w3.org/2000/svg" xmlns:xlink="http://www.w3.org/1999/xlink" x="0px" y="0px"
	 viewBox="0 0 2133 612" style="enable-background:new 0 0 2133 612;" xml:space="preserve">
<g>
	<g>
		<path d="M1675,174.6c15-2.9,30.7,8.4,32.8,23.5c3,15.3-8.8,31.4-24.3,33c-15,2.5-30.4-9.1-32.1-24.2
			C1648.8,192,1660.1,176.7,1675,174.6z M1676,179.6c-11.8,1.7-21,13.4-19.8,25.2c0.8,10.7,9.7,20,20.3,21.3
			c11,1.7,22.4-5.7,25.5-16.3c2.7-8.1,0.3-17.6-5.9-23.6C1691.1,181,1683.3,178.4,1676,179.6z"/>
	</g>
	<g>
		<path d="M1669,218c0-10.1,0-20.2,0-30.2c5.4,0.2,10.9-0.7,16.1,0.8c5.9,1.8,6.9,10.5,2.3,14.3c4.5,3.7,2.3,10.1,2.8,15.1
			c-1.8,0-3.7,0-5.5,0c-0.2-3.8,0.7-7.9-0.7-11.5c-3-1.5-6.4-0.9-9.5-1c0,4.2,0,8.3,0,12.5C1672.7,218,1670.8,218,1669,218z
			 M1674.5,192.7c0,2.8,0,5.5,0,8.3c2.6,0,5.2,0.2,7.8-0.3c3.3-1,3.3-6.5,0-7.6C1679.8,192.5,1677.1,192.8,1674.5,192.7z"/>
	</g>
	<g>
		<path d="M1418.6,193.5c10-0.5,20,0.1,29.9-0.5c2.7,0,6.2-0.3,7.9,2.3c1.6,3,0,6.3-1.7,8.8c-10.3,13.9-20,28.2-29.9,42.4
			c12.8,0,25.6-0.6,38.4-0.8c5.1-6.9,10.1-14,15.2-20.9c5.6-7,14-12.5,23.2-12.2c4.1,0,8.5-0.8,12.5,0.6c3.5,2.1,2.2,6.9,0.2,9.6
			c-5.3,7.1-10.6,14.3-15.8,21.6c11.7,0.1,23.4-0.2,35.1-0.5c3.1-0.2,5.9,2.1,6.8,5c3.1,9.1-2.4,21.7-12.8,22.7
			c-16.9,1.1-33.7,1.7-50.6,2.8c-22.8,32.3-45.8,64.4-67.6,97.4c-5.2,7.9-10.8,15.7-14,24.7c-0.7,2.5-1.7,5.9,0.5,7.9
			c4.4,1,8.3-2,11.9-4.2c14.1-10,26.3-22.3,38.3-34.7c6.5-6.8,12.8-13.9,18.7-21.3c2.9-3.4,6.2-7.1,10.8-8.1c1.9-0.5,4,0.9,4.2,2.9
			c0.6,4.7-1.6,9.3-4.2,13c-10.5,14.2-22.6,27.2-35,39.9c-13.1,13.4-27.4,25.8-43.3,35.8c-7.9,5-17.4,8.1-26.8,7.2
			c-5.5-0.5-10.6-4.5-12.3-9.8c-2.5-7.3-1.2-15.2,1-22.4c-11,10.2-22.4,20-35.6,27.3c-7,3.9-15,6.4-23,6.1c-4.7-0.2-9.3-2.3-12-6.2
			c-3.5-4.9-3.6-11.3-2.9-17c1.4-10.7,6.3-20.7,12.1-29.7c10.1-16.1,21-31.7,31.6-47.5c12.8-19,25.6-38,38.6-56.9
			c-1.5-1.4-3.5-2.7-3.4-5c-0.5-5.3,2.5-10.2,5.9-14c5.2-5.6,11.6-10.3,19.1-12.2c9.8-14,19.3-28.1,29.3-42
			c-5.4,0-11.7-0.2-15.8-4.4c-1.6-1.5-1.1-4.1,0.6-5.3C1407.8,192.7,1413.6,193.7,1418.6,193.5z M1402.8,278.3
			c-16.5,23.6-32.7,47.3-48.7,71.2c-9.5,14.5-19.8,28.7-28.3,43.8c-1.7,3.4-3.8,7.4-2.6,11.3c1.2,2.5,4.5,1.7,6.5,0.9
			c6.2-2.8,11.4-7.3,16.8-11.5c15.1-12.6,28.7-26.7,41.5-41.6c5.8-6.6,10.5-14.2,15.6-21.4c12.7-18.2,25.2-36.5,37.9-54.6
			C1428.6,277,1415.7,277.9,1402.8,278.3z"/>
	</g>
	<g>
		<path d="M809.6,213c4.8-6.6,12-11.8,20-13.4c5.2-0.2,10.5-0.5,15.8,0.1c4.6,1.6,3,7.8,0.7,10.8c-33.7,48-67.3,96.2-100.4,144.6
			c-9.8,14.6-20.2,29-28.5,44.6c-1.5,3.4-3.7,7.2-2.5,11c1.9,3,5.9,0.9,8.4-0.1c13.1-7.4,23.7-18.2,34.5-28.5
			c8.7-9,17.5-17.9,25.2-27.8c6.4-8.9,12.4-18.2,19.1-26.9c4.9-6.4,11.9-11.5,19.9-12.8c4.6-0.2,9.2-0.5,13.9-0.3
			c2.2,0,4.8,1.2,4.9,3.7c0.5,3.3-1.5,6.2-3.4,8.7c-12.4,15.8-23.3,32.8-34.7,49.3c-5.3,8.1-10.9,16.1-15,24.9
			c-1.2,3.1-3,7.1-0.6,10.1c4,1.7,8-1.4,11.4-3.2c14.3-9.8,26.5-22.2,38.4-34.7c6.5-7.1,13.2-14.2,19.1-21.8
			c6.2-9.1,12.7-18,19.4-26.7c5.6-6.4,13.8-11.1,22.4-10.8c4.1,0.1,8.6-1,12.5,0.8c3.5,2.7,1.4,7.6-0.8,10.4
			c-11.3,14.8-22,30.1-32.5,45.5c-4.7,6.8-9,13.7-13.2,20.8c-2.8,5.3-6.8,10.6-6.5,16.9c0.5,4,5.4,2.7,7.8,1.4
			c9.7-5.1,18-12.7,26-20c11-10.3,21.5-21.2,31.3-32.7c8.8-10.1,15.6-21.7,23.5-32.4c5.4-6.9,13.9-11.7,22.8-11.3
			c4.3,0.3,9-1.2,13,1c2.8,2.6,1.3,6.7-0.5,9.4c-5,7.3-10,14.6-15.1,21.9c11.2-9,22.6-17.8,35.3-24.7c9.9-5.2,21-8.8,32.3-8
			c4.5,0.2,9.5,2.7,10.4,7.5c1.1,7.2-2,14.1-4.8,20.5c11.6-9.4,23.7-18.7,37.6-24.4c8.7-3.3,18.3-5.7,27.6-3.7
			c3.9,0.7,7.3,3.7,7.9,7.7c1,6.8-2,13.4-4.8,19.4c-5.7,11.5-13.3,21.8-21.1,32c-7.8,10.1-16.9,20-20.2,32.6c-1,2.7,2,5.1,4.5,4.2
			c5.2-1.2,9.4-4.7,13.6-7.8c12.7-9.8,24-21.3,35.2-32.9c7.2-7.8,14.5-15.6,20.3-24.6c5.1-7.3,10.1-14.7,15.5-21.7
			c5.4-6.5,13.8-11.1,22.4-10.7c3.9,0.2,7.9-0.4,11.8,0.5c3.1,1.4,3,5.5,1.6,8.1c-2,3.8-4.9,6.9-7.4,10.4c9.3-6.2,19.1-12,29.7-15.8
			c6.8-2.5,14.2-4.4,21.4-2.8c5.9,1.3,10.8,6.1,12.2,11.9c2,7.8,0.3,15.9-2.1,23.4c-5.5,16.3-15.2,30.7-25.7,44.1
			c-13.8,17.2-30.4,33.3-51.1,41.7c-10.5,4.2-22.7,6.5-33.4,1.9c-6.6-2.8-10.5-9.6-11.4-16.5c-21.8,33.1-42.8,66.7-63.4,100.5
			c-1.7,2.6-3,5.9-6.1,7.1c-4.6,1-9.1-1.6-12.2-4.8c-6-6.3-8.8-16.3-4.7-24.4c2.6-5,5.8-9.5,8.8-14.2c14.2-21.8,28.8-43.3,43.7-64.6
			c-7.2,5.6-14.5,11.3-22.5,15.9c-7.7,4.4-16.9,6.8-25.8,5.4c-5.8-0.9-11-5-12.6-10.8c-1.9-7-0.3-14.5,2-21.2
			c4.7-13.6,13.3-25.4,22.2-36.6c6.1-8,12.4-15.8,18.4-23.8c1.6-2.4,3.7-4.9,3.3-7.9c-0.6-1.8-3-1.8-4.4-1.2
			c-5.7,1.8-10.4,5.5-15.2,8.9c-17.8,13.4-33.7,29.2-48.5,45.8c-9.5,10.3-16.9,22.3-25.2,33.6c-4.4,7-11.6,12.3-19.7,14.2
			c-5.3,0.6-10.7,0.6-16,0.1c-4.5-1-4-6.9-1.7-9.8c12.4-18.2,23.9-37.1,38-54.1c7.4-9.3,14.7-18.6,21.9-28c2-2.5,3.5-5.5,4.3-8.6
			c-2.9-3.2-7.1-0.8-10.2,0.7c-10.8,5.7-20.1,13.7-29.4,21.5c-21.4,18.7-41,39.6-56.6,63.3c-4.4,7.2-11.4,12.9-19.6,15.2
			c-5.6,1.1-11.4,0.9-17,0.5c-3.7-0.3-4.6-4.7-3.2-7.5c2.4-5.2,6.3-9.4,9.3-14.2c-9.5,7.2-18.8,15.1-30,19.7
			c-7.3,2.6-15.9,4.4-23.1,0.7c-4.5-2.2-7.2-7-8-11.8c-1.1-6.5,0.2-13,2.2-19.2c-11,10.3-22.5,20.3-35.7,27.8
			c-7.8,4.3-16.7,7-25.7,6c-5.5-0.7-10.9-4.3-12.7-9.7c-2.5-7.1-0.8-14.9,1.6-21.8c-8.3,7.7-17.1,14.9-26.4,21.3
			c-6.8,4.8-14.1,9.1-22.4,10.5c-6,1.1-13.1,1.3-18-2.9c-5-4-6.2-11-5.7-17.1c1.2-13.1,7.5-25.1,14.7-35.9
			c23.4-36,47.7-71.5,72-106.8C778.8,257,794,234.9,809.6,213z M1200.7,334.2c-6.7,1.5-12.6,5.1-18.1,9
			c-10.6,7.6-19.7,17.2-27.2,27.7c-6.8,9.3-13.5,19-17.3,29.9c-1.7,5.4-3.1,12,0.6,17c3.4,4.1,9.5,3.3,14,1.6
			c14.2-5.2,24.7-16.9,33.6-28.7c9.1-12.6,18.5-25.5,23.4-40.4c1.2-4.3,2.7-9.4,0.2-13.5C1207.9,333.7,1203.9,333.4,1200.7,334.2z"
			/>
	</g>
	<path d="M624.5,205.1c19.2-4.3,39.2-5.4,58.8-3.4c14.9,1.6,30.2,5.8,41.8,15.7c10,8,17.1,19.7,18.6,32.6c2.4,19.4-5,38.6-15.8,54.3
		c-16.8,24.5-42.5,41.6-70.1,51.9c-18.6,6.8-38.5,9.7-58.3,9.6c-8.7,0.4-17.4,0.2-26.1,0.2c-10.4,14.6-21.3,29-34,41.8
		c-11.2,11.1-23.8,21.1-38.3,27.7c-14.5,6.8-30.6,9.9-46.6,10c-4.2,0.3-7.5-2.5-10.7-4.8c-6.4-5.1-12.4-10.8-17.6-17.2
		c10.2,4.1,21,8.1,32.2,6.9c17.2-1.1,31.5-12.4,43.3-24.1c15.2-15.6,26.6-34.3,38.9-52.2c3.8-5.6,7.3-11.3,11.1-16.9
		c17.8-25.3,35-50.9,52.9-76.1c7.3-10.4,14.1-22.3,26-27.9c8.9-3.7,18.3-6.1,27.8-7.7c3.2-0.9,5.2,2.7,5.2,5.4
		c-0.1,3.8-2.6,6.8-4.6,9.6c-13.6,18.6-26.5,37.7-39.4,56.7c-12.2,17.6-24.1,35.5-35.9,53.5c12.2-0.8,24.6,0.6,36.7-1.9
		c15.5-2.7,29.6-10.4,41.9-19.9c13.9-10.9,25.1-25.1,33.1-40.9c6-12.5,10.4-26.1,10.4-40.1c-0.1-9.4-2.8-19.2-9.5-26.1
		c-5.5-5.5-13.5-7.4-21.1-7.2c-18.8,0.1-38.4,1.7-55,11.1c-14,7.9-24.3,21-32.6,34.5c-6.7,10.9-13.7,21.6-20.6,32.4
		c-0.7,0.9-1.2,2.1-2.3,2.7c-8.1-2.2-16.5-6.5-20.4-14.4c-3.9-7.3-2.9-16.3,0.5-23.6c5-10.9,13.5-19.9,22.9-27.2
		C584.4,217.5,604.2,209.7,624.5,205.1z"/>
	<path d="M1602.8,221.6c6.3-1.3,13.7-2.1,19.3,1.8c3,2.9,0.2,7-1.7,9.6c-11.1,15-21.9,30.2-32.8,45.3c-17,23-33.8,46-51,68.9
		c-4.6,6.1-9,13.9-17.2,15.4c-4.8,0.1-4.7-6-3.6-9.2c2.7-6.6,6.5-12.8,9.8-19.1c17.6-31.4,35.3-62.7,52.7-94.3
		c2.1-3.8,3.7-8.1,7.2-10.8C1590.6,225.2,1596.7,223,1602.8,221.6z"/>
	<path d="M1483.9,395.7c7-2.5,15.7-1.6,21.1,3.9c8.2,7.2,8,21.5,0,28.9c-7.2,7.4-20.5,7.1-27.6-0.3c-7.3-6.9-7.9-19.8-1-27.2
		C1478.5,398.6,1481.1,396.8,1483.9,395.7z"/>
</g>
</svg>
