<?xml version="1.0" encoding="UTF-8" standalone="no"?>
<svg
   xmlns:dc="http://purl.org/dc/elements/1.1/"
   xmlns:cc="http://creativecommons.org/ns#"
   xmlns:rdf="http://www.w3.org/1999/02/22-rdf-syntax-ns#"
   xmlns:svg="http://www.w3.org/2000/svg"
   xmlns="http://www.w3.org/2000/svg"
   xmlns:sodipodi="http://sodipodi.sourceforge.net/DTD/sodipodi-0.dtd"
   xmlns:inkscape="http://www.inkscape.org/namespaces/inkscape"
   width="339.21393mm"
   height="92.993919mm"
   viewBox="0 0 339.21393 92.993919"
   version="1.1"
   id="svg8"
   inkscape:version="1.0.2 (e86c870879, 2021-01-15, custom)"
   sodipodi:docname="new-logo-2.svg">
  <defs
     id="defs2" />
  <sodipodi:namedview
     id="base"
     pagecolor="#ffffff"
     bordercolor="#666666"
     borderopacity="1.0"
     inkscape:pageopacity="0.0"
     inkscape:pageshadow="2"
     inkscape:zoom="0.7"
     inkscape:cx="527.8052"
     inkscape:cy="143.16507"
     inkscape:document-units="mm"
     inkscape:current-layer="layer1"
     inkscape:document-rotation="0"
     showgrid="false"
     fit-margin-top="0"
     fit-margin-left="0"
     fit-margin-right="0"
     fit-margin-bottom="0"
     inkscape:window-width="1346"
     inkscape:window-height="1050"
     inkscape:window-x="1907"
     inkscape:window-y="146"
     inkscape:window-maximized="0" />
  <metadata
     id="metadata5">
    <rdf:RDF>
      <cc:Work
         rdf:about="">
        <dc:format>image/svg+xml</dc:format>
        <dc:type
           rdf:resource="http://purl.org/dc/dcmitype/StillImage" />
        <dc:title></dc:title>
      </cc:Work>
    </rdf:RDF>
  </metadata>
  <g
     inkscape:label="Layer 1"
     inkscape:groupmode="layer"
     id="layer1"
     transform="translate(26.731955,-91.842325)">
    <g
       id="g32"
       transform="matrix(0.26458333,0,0,0.26458333,-139.49737,45.766708)">
	<g
   id="g12">
		<path
   d="m 1675,174.6 c 15,-2.9 30.7,8.4 32.8,23.5 3,15.3 -8.8,31.4 -24.3,33 -15,2.5 -30.4,-9.1 -32.1,-24.2 -2.6,-14.9 8.7,-30.2 23.6,-32.3 z m 1,5 c -11.8,1.7 -21,13.4 -19.8,25.2 0.8,10.7 9.7,20 20.3,21.3 11,1.7 22.4,-5.7 25.5,-16.3 2.7,-8.1 0.3,-17.6 -5.9,-23.6 -5,-5.2 -12.8,-7.8 -20.1,-6.6 z"
   id="path10" />

	</g>

	<g
   id="g16">
		<path
   d="m 1669,218 c 0,-10.1 0,-20.2 0,-30.2 5.4,0.2 10.9,-0.7 16.1,0.8 5.9,1.8 6.9,10.5 2.3,14.3 4.5,3.7 2.3,10.1 2.8,15.1 -1.8,0 -3.7,0 -5.5,0 -0.2,-3.8 0.7,-7.9 -0.7,-11.5 -3,-1.5 -6.4,-0.9 -9.5,-1 0,4.2 0,8.3 0,12.5 -1.8,0 -3.7,0 -5.5,0 z m 5.5,-25.3 c 0,2.8 0,5.5 0,8.3 2.6,0 5.2,0.2 7.8,-0.3 3.3,-1 3.3,-6.5 0,-7.6 -2.5,-0.6 -5.2,-0.3 -7.8,-0.4 z"
   id="path14" />

	</g>

	<g
   id="g20">
		<path
   d="m 1418.6,193.5 c 10,-0.5 20,0.1 29.9,-0.5 2.7,0 6.2,-0.3 7.9,2.3 1.6,3 0,6.3 -1.7,8.8 -10.3,13.9 -20,28.2 -29.9,42.4 12.8,0 25.6,-0.6 38.4,-0.8 5.1,-6.9 10.1,-14 15.2,-20.9 5.6,-7 14,-12.5 23.2,-12.2 4.1,0 8.5,-0.8 12.5,0.6 3.5,2.1 2.2,6.9 0.2,9.6 -5.3,7.1 -10.6,14.3 -15.8,21.6 11.7,0.1 23.4,-0.2 35.1,-0.5 3.1,-0.2 5.9,2.1 6.8,5 3.1,9.1 -2.4,21.7 -12.8,22.7 -16.9,1.1 -33.7,1.7 -50.6,2.8 -22.8,32.3 -45.8,64.4 -67.6,97.4 -5.2,7.9 -10.8,15.7 -14,24.7 -0.7,2.5 -1.7,5.9 0.5,7.9 4.4,1 8.3,-2 11.9,-4.2 14.1,-10 26.3,-22.3 38.3,-34.7 6.5,-6.8 12.8,-13.9 18.7,-21.3 2.9,-3.4 6.2,-7.1 10.8,-8.1 1.9,-0.5 4,0.9 4.2,2.9 0.6,4.7 -1.6,9.3 -4.2,13 -10.5,14.2 -22.6,27.2 -35,39.9 -13.1,13.4 -27.4,25.8 -43.3,35.8 -7.9,5 -17.4,8.1 -26.8,7.2 -5.5,-0.5 -10.6,-4.5 -12.3,-9.8 -2.5,-7.3 -1.2,-15.2 1,-22.4 -11,10.2 -22.4,20 -35.6,27.3 -7,3.9 -15,6.4 -23,6.1 -4.7,-0.2 -9.3,-2.3 -12,-6.2 -3.5,-4.9 -3.6,-11.3 -2.9,-17 1.4,-10.7 6.3,-20.7 12.1,-29.7 10.1,-16.1 21,-31.7 31.6,-47.5 12.8,-19 25.6,-38 38.6,-56.9 -1.5,-1.4 -3.5,-2.7 -3.4,-5 -0.5,-5.3 2.5,-10.2 5.9,-14 5.2,-5.6 11.6,-10.3 19.1,-12.2 9.8,-14 19.3,-28.1 29.3,-42 -5.4,0 -11.7,-0.2 -15.8,-4.4 -1.6,-1.5 -1.1,-4.1 0.6,-5.3 4.1,-3.2 9.9,-2.2 14.9,-2.4 z m -15.8,84.8 c -16.5,23.6 -32.7,47.3 -48.7,71.2 -9.5,14.5 -19.8,28.7 -28.3,43.8 -1.7,3.4 -3.8,7.4 -2.6,11.3 1.2,2.5 4.5,1.7 6.5,0.9 6.2,-2.8 11.4,-7.3 16.8,-11.5 15.1,-12.6 28.7,-26.7 41.5,-41.6 5.8,-6.6 10.5,-14.2 15.6,-21.4 12.7,-18.2 25.2,-36.5 37.9,-54.6 -12.9,0.6 -25.8,1.5 -38.7,1.9 z"
   id="path18" />

	</g>

	<g
   id="g24">
		<path
   d="m 809.6,213 c 4.8,-6.6 12,-11.8 20,-13.4 5.2,-0.2 10.5,-0.5 15.8,0.1 4.6,1.6 3,7.8 0.7,10.8 -33.7,48 -67.3,96.2 -100.4,144.6 -9.8,14.6 -20.2,29 -28.5,44.6 -1.5,3.4 -3.7,7.2 -2.5,11 1.9,3 5.9,0.9 8.4,-0.1 13.1,-7.4 23.7,-18.2 34.5,-28.5 8.7,-9 17.5,-17.9 25.2,-27.8 6.4,-8.9 12.4,-18.2 19.1,-26.9 4.9,-6.4 11.9,-11.5 19.9,-12.8 4.6,-0.2 9.2,-0.5 13.9,-0.3 2.2,0 4.8,1.2 4.9,3.7 0.5,3.3 -1.5,6.2 -3.4,8.7 -12.4,15.8 -23.3,32.8 -34.7,49.3 -5.3,8.1 -10.9,16.1 -15,24.9 -1.2,3.1 -3,7.1 -0.6,10.1 4,1.7 8,-1.4 11.4,-3.2 14.3,-9.8 26.5,-22.2 38.4,-34.7 6.5,-7.1 13.2,-14.2 19.1,-21.8 6.2,-9.1 12.7,-18 19.4,-26.7 5.6,-6.4 13.8,-11.1 22.4,-10.8 4.1,0.1 8.6,-1 12.5,0.8 3.5,2.7 1.4,7.6 -0.8,10.4 -11.3,14.8 -22,30.1 -32.5,45.5 -4.7,6.8 -9,13.7 -13.2,20.8 -2.8,5.3 -6.8,10.6 -6.5,16.9 0.5,4 5.4,2.7 7.8,1.4 9.7,-5.1 18,-12.7 26,-20 11,-10.3 21.5,-21.2 31.3,-32.7 8.8,-10.1 15.6,-21.7 23.5,-32.4 5.4,-6.9 13.9,-11.7 22.8,-11.3 4.3,0.3 9,-1.2 13,1 2.8,2.6 1.3,6.7 -0.5,9.4 -5,7.3 -10,14.6 -15.1,21.9 11.2,-9 22.6,-17.8 35.3,-24.7 9.9,-5.2 21,-8.8 32.3,-8 4.5,0.2 9.5,2.7 10.4,7.5 1.1,7.2 -2,14.1 -4.8,20.5 11.6,-9.4 23.7,-18.7 37.6,-24.4 8.7,-3.3 18.3,-5.7 27.6,-3.7 3.9,0.7 7.3,3.7 7.9,7.7 1,6.8 -2,13.4 -4.8,19.4 -5.7,11.5 -13.3,21.8 -21.1,32 -7.8,10.1 -16.9,20 -20.2,32.6 -1,2.7 2,5.1 4.5,4.2 5.2,-1.2 9.4,-4.7 13.6,-7.8 12.7,-9.8 24,-21.3 35.2,-32.9 7.2,-7.8 14.5,-15.6 20.3,-24.6 5.1,-7.3 10.1,-14.7 15.5,-21.7 5.4,-6.5 13.8,-11.1 22.4,-10.7 3.9,0.2 7.9,-0.4 11.8,0.5 3.1,1.4 3,5.5 1.6,8.1 -2,3.8 -4.9,6.9 -7.4,10.4 9.3,-6.2 19.1,-12 29.7,-15.8 6.8,-2.5 14.2,-4.4 21.4,-2.8 5.9,1.3 10.8,6.1 12.2,11.9 2,7.8 0.3,15.9 -2.1,23.4 -5.5,16.3 -15.2,30.7 -25.7,44.1 -13.8,17.2 -30.4,33.3 -51.1,41.7 -10.5,4.2 -22.7,6.5 -33.4,1.9 -6.6,-2.8 -10.5,-9.6 -11.4,-16.5 -21.8,33.1 -42.8,66.7 -63.4,100.5 -1.7,2.6 -3,5.9 -6.1,7.1 -4.6,1 -9.1,-1.6 -12.2,-4.8 -6,-6.3 -8.8,-16.3 -4.7,-24.4 2.6,-5 5.8,-9.5 8.8,-14.2 14.2,-21.8 28.8,-43.3 43.7,-64.6 -7.2,5.6 -14.5,11.3 -22.5,15.9 -7.7,4.4 -16.9,6.8 -25.8,5.4 -5.8,-0.9 -11,-5 -12.6,-10.8 -1.9,-7 -0.3,-14.5 2,-21.2 4.7,-13.6 13.3,-25.4 22.2,-36.6 6.1,-8 12.4,-15.8 18.4,-23.8 1.6,-2.4 3.7,-4.9 3.3,-7.9 -0.6,-1.8 -3,-1.8 -4.4,-1.2 -5.7,1.8 -10.4,5.5 -15.2,8.9 -17.8,13.4 -33.7,29.2 -48.5,45.8 -9.5,10.3 -16.9,22.3 -25.2,33.6 -4.4,7 -11.6,12.3 -19.7,14.2 -5.3,0.6 -10.7,0.6 -16,0.1 -4.5,-1 -4,-6.9 -1.7,-9.8 12.4,-18.2 23.9,-37.1 38,-54.1 7.4,-9.3 14.7,-18.6 21.9,-28 2,-2.5 3.5,-5.5 4.3,-8.6 -2.9,-3.2 -7.1,-0.8 -10.2,0.7 -10.8,5.7 -20.1,13.7 -29.4,21.5 -21.4,18.7 -41,39.6 -56.6,63.3 -4.4,7.2 -11.4,12.9 -19.6,15.2 -5.6,1.1 -11.4,0.9 -17,0.5 -3.7,-0.3 -4.6,-4.7 -3.2,-7.5 2.4,-5.2 6.3,-9.4 9.3,-14.2 -9.5,7.2 -18.8,15.1 -30,19.7 -7.3,2.6 -15.9,4.4 -23.1,0.7 -4.5,-2.2 -7.2,-7 -8,-11.8 -1.1,-6.5 0.2,-13 2.2,-19.2 -11,10.3 -22.5,20.3 -35.7,27.8 -7.8,4.3 -16.7,7 -25.7,6 -5.5,-0.7 -10.9,-4.3 -12.7,-9.7 -2.5,-7.1 -0.8,-14.9 1.6,-21.8 -8.3,7.7 -17.1,14.9 -26.4,21.3 -6.8,4.8 -14.1,9.1 -22.4,10.5 -6,1.1 -13.1,1.3 -18,-2.9 -5,-4 -6.2,-11 -5.7,-17.1 1.2,-13.1 7.5,-25.1 14.7,-35.9 23.4,-36 47.7,-71.5 72,-106.8 C 778.8,257 794,234.9 809.6,213 Z m 391.1,121.2 c -6.7,1.5 -12.6,5.1 -18.1,9 -10.6,7.6 -19.7,17.2 -27.2,27.7 -6.8,9.3 -13.5,19 -17.3,29.9 -1.7,5.4 -3.1,12 0.6,17 3.4,4.1 9.5,3.3 14,1.6 14.2,-5.2 24.7,-16.9 33.6,-28.7 9.1,-12.6 18.5,-25.5 23.4,-40.4 1.2,-4.3 2.7,-9.4 0.2,-13.5 -2,-3.1 -6,-3.4 -9.2,-2.6 z"
   id="path22" />

	</g>

	<path
   d="m 624.5,205.1 c 19.2,-4.3 39.2,-5.4 58.8,-3.4 14.9,1.6 30.2,5.8 41.8,15.7 10,8 17.1,19.7 18.6,32.6 2.4,19.4 -5,38.6 -15.8,54.3 -16.8,24.5 -42.5,41.6 -70.1,51.9 -18.6,6.8 -38.5,9.7 -58.3,9.6 -8.7,0.4 -17.4,0.2 -26.1,0.2 -10.4,14.6 -21.3,29 -34,41.8 -11.2,11.1 -23.8,21.1 -38.3,27.7 -14.5,6.8 -30.6,9.9 -46.6,10 -4.2,0.3 -7.5,-2.5 -10.7,-4.8 -6.4,-5.1 -12.4,-10.8 -17.6,-17.2 10.2,4.1 21,8.1 32.2,6.9 17.2,-1.1 31.5,-12.4 43.3,-24.1 15.2,-15.6 26.6,-34.3 38.9,-52.2 3.8,-5.6 7.3,-11.3 11.1,-16.9 17.8,-25.3 35,-50.9 52.9,-76.1 7.3,-10.4 14.1,-22.3 26,-27.9 8.9,-3.7 18.3,-6.1 27.8,-7.7 3.2,-0.9 5.2,2.7 5.2,5.4 -0.1,3.8 -2.6,6.8 -4.6,9.6 -13.6,18.6 -26.5,37.7 -39.4,56.7 -12.2,17.6 -24.1,35.5 -35.9,53.5 12.2,-0.8 24.6,0.6 36.7,-1.9 15.5,-2.7 29.6,-10.4 41.9,-19.9 13.9,-10.9 25.1,-25.1 33.1,-40.9 6,-12.5 10.4,-26.1 10.4,-40.1 -0.1,-9.4 -2.8,-19.2 -9.5,-26.1 -5.5,-5.5 -13.5,-7.4 -21.1,-7.2 -18.8,0.1 -38.4,1.7 -55,11.1 -14,7.9 -24.3,21 -32.6,34.5 -6.7,10.9 -13.7,21.6 -20.6,32.4 -0.7,0.9 -1.2,2.1 -2.3,2.7 -8.1,-2.2 -16.5,-6.5 -20.4,-14.4 -3.9,-7.3 -2.9,-16.3 0.5,-23.6 5,-10.9 13.5,-19.9 22.9,-27.2 16.7,-12.6 36.5,-20.4 56.8,-25 z"
   id="path26" />

	<path
   d="m 1602.8,221.6 c 6.3,-1.3 13.7,-2.1 19.3,1.8 3,2.9 0.2,7 -1.7,9.6 -11.1,15 -21.9,30.2 -32.8,45.3 -17,23 -33.8,46 -51,68.9 -4.6,6.1 -9,13.9 -17.2,15.4 -4.8,0.1 -4.7,-6 -3.6,-9.2 2.7,-6.6 6.5,-12.8 9.8,-19.1 17.6,-31.4 35.3,-62.7 52.7,-94.3 2.1,-3.8 3.7,-8.1 7.2,-10.8 5.1,-4 11.2,-6.2 17.3,-7.6 z"
   id="path28" />

	<path
   d="m 1483.9,395.7 c 7,-2.5 15.7,-1.6 21.1,3.9 8.2,7.2 8,21.5 0,28.9 -7.2,7.4 -20.5,7.1 -27.6,-0.3 -7.3,-6.9 -7.9,-19.8 -1,-27.2 2.1,-2.4 4.7,-4.2 7.5,-5.3 z"
   id="path30" />

</g>
  </g>
</svg>
